<?xml version="1.0" standalone="no"?>
<!DOCTYPE svg PUBLIC "-//W3C//DTD SVG 20010904//EN"
 "http://www.w3.org/TR/2001/REC-SVG-20010904/DTD/svg10.dtd">
<svg version="1.0" xmlns="http://www.w3.org/2000/svg"
 width="650.000000pt" height="695.000000pt" viewBox="0 0 650.000000 695.000000"
 preserveAspectRatio="xMidYMid meet">

<g transform="translate(0.000000,695.000000) scale(0.100000,-0.100000)"
fill="#000000" stroke="none">
<path d="M3052 4845 c-19 -8 -68 -43 -109 -77 -67 -57 -74 -66 -70 -93 9 -63
-36 -101 -90 -76 -24 11 -30 9 -60 -22 l-34 -34 72 -86 c41 -48 77 -87 80 -87
4 0 22 12 39 27 28 23 31 31 27 61 -5 27 -1 39 18 58 13 13 33 24 43 24 26 0
72 -37 72 -58 1 -9 11 -29 23 -43 12 -15 39 -47 61 -72 l38 -47 -208 -237
c-114 -131 -210 -242 -214 -246 -6 -7 -109 109 -391 437 l-25 28 -119 -138
c-117 -135 -120 -137 -123 -106 l-3 32 -60 0 -59 0 0 -105 0 -105 -125 -145
-126 -145 95 0 95 0 202 238 c111 130 207 243 214 250 8 9 46 -29 168 -173
l158 -185 -118 -140 -118 -139 -582 -1 -583 0 0 -65 0 -65 633 0 632 0 374
440 c205 242 376 442 381 445 4 2 84 -86 178 -198 94 -111 263 -310 375 -442
l203 -240 632 -3 632 -2 0 65 0 65 -579 0 -578 0 -114 135 c-63 74 -115 138
-116 142 -4 10 295 363 307 363 5 0 103 -110 217 -245 l208 -244 93 -1 c86 0
92 1 82 18 -6 9 -62 76 -125 147 l-114 130 -1 103 0 102 -59 0 c-59 0 -60 -1
-63 -29 -3 -29 -7 -26 -88 70 -47 55 -99 116 -116 135 l-31 36 -202 -233
c-112 -129 -205 -233 -208 -233 -9 2 -423 478 -423 486 0 4 27 37 60 75 33 37
58 73 55 80 -5 15 51 63 74 63 9 0 27 -7 39 -16 19 -13 23 -24 21 -55 -3 -31
2 -44 26 -69 16 -17 35 -29 41 -28 6 2 44 41 83 88 l72 85 -36 33 c-29 26 -39
31 -54 22 -30 -16 -59 -12 -82 11 -16 16 -19 28 -15 57 6 36 5 38 -71 101
-104 86 -128 95 -228 87 -91 -8 -83 -8 -190 -1 -59 4 -89 1 -113 -10z m314
-64 c53 -24 62 -50 36 -100 -17 -32 -18 -41 -7 -52 12 -12 3 -27 -57 -96 -39
-46 -73 -83 -77 -82 -6 0 -81 88 -125 146 -16 20 -17 26 -5 33 11 7 10 15 -4
45 -9 20 -17 41 -17 48 0 26 27 49 80 68 62 22 110 19 176 -10z"/>
<path d="M2392 4262 c291 -346 342 -402 353 -390 7 7 81 94 165 193 84 99 163
190 174 203 l21 23 -45 -19 c-25 -11 -106 -48 -180 -82 -74 -35 -139 -63 -145
-63 -5 0 -88 37 -184 82 -96 44 -176 81 -179 81 -2 0 7 -13 20 -28z"/>
<path d="M3447 4267 c97 -122 349 -405 354 -400 27 28 357 418 355 421 -2 1
-81 -35 -177 -79 -96 -45 -179 -82 -185 -82 -5 0 -62 24 -125 53 -240 112
-243 113 -222 87z"/>
<path d="M1967 4133 c-17 -17 -2 -23 53 -23 47 0 60 3 60 15 0 11 -13 15 -53
15 -30 0 -57 -3 -60 -7z"/>
<path d="M4440 4125 c0 -12 13 -15 60 -15 47 0 60 3 60 15 0 12 -13 15 -60 15
-47 0 -60 -3 -60 -15z"/>
<path d="M3286 3893 c-3 -4 -6 -30 -6 -60 l0 -53 55 0 c63 0 69 12 34 61 -22
31 -72 62 -83 52z"/>
<path d="M3186 3869 c-23 -18 -56 -67 -56 -84 0 -3 26 -5 57 -3 64 3 70 11 58
74 -7 39 -22 42 -59 13z"/>
<path d="M2200 3815 l0 -56 48 3 47 3 0 50 0 50 -47 3 -48 3 0 -56z"/>
<path d="M2320 3816 l0 -56 51 0 50 0 -3 53 -3 52 -47 3 -48 3 0 -55z"/>
<path d="M4110 3815 l0 -55 50 0 50 0 0 55 0 55 -50 0 -50 0 0 -55z"/>
<path d="M4230 3815 l0 -55 50 0 50 0 0 55 0 55 -50 0 -50 0 0 -55z"/>
<path d="M3130 3690 l0 -61 57 3 57 3 4 58 3 57 -61 0 -60 0 0 -60z"/>
<path d="M3280 3690 l0 -60 59 0 59 0 -1 58 -2 57 -57 3 -58 3 0 -61z"/>
<path d="M2200 3685 l0 -56 48 3 47 3 0 50 0 50 -47 3 -48 3 0 -56z"/>
<path d="M2320 3686 l0 -56 51 0 50 0 -3 53 -3 52 -47 3 -48 3 0 -55z"/>
<path d="M4110 3685 l0 -55 50 0 50 0 0 55 0 55 -50 0 -50 0 0 -55z"/>
<path d="M4230 3685 l0 -55 50 0 50 0 0 55 0 55 -50 0 -50 0 0 -55z"/>
<path d="M1440 2870 l0 -290 1815 0 1815 0 0 290 0 290 -1815 0 -1815 0 0
-290z m440 100 c11 -11 20 -33 20 -50 0 -17 -9 -39 -20 -50 -11 -11 -33 -20
-50 -20 -28 0 -30 -3 -30 -35 0 -31 -3 -35 -25 -35 -25 0 -25 0 -25 98 0 54 3
102 7 105 3 4 28 7 55 7 35 0 54 -6 68 -20z m100 -85 l0 -105 -25 0 -25 0 0
105 0 105 25 0 25 0 0 -105z m160 85 c0 -17 -7 -20 -40 -20 -36 0 -40 -2 -40
-25 0 -22 4 -25 40 -25 33 0 40 -3 40 -20 0 -17 -7 -20 -40 -20 -33 0 -40 -3
-40 -20 0 -17 7 -20 40 -20 33 0 40 -3 40 -20 0 -18 -7 -20 -65 -20 l-65 0 0
105 0 105 65 0 c58 0 65 -2 65 -20z m158 4 c26 -18 30 -65 7 -84 -10 -8 -12
-17 -6 -24 5 -6 14 -28 19 -49 10 -37 10 -38 -15 -35 -19 2 -28 12 -37 38 -6
19 -19 36 -28 38 -15 3 -18 -4 -18 -37 0 -37 -2 -41 -25 -41 -25 0 -25 0 -25
98 0 54 3 102 7 105 13 13 99 7 121 -9z m177 2 c23 -17 25 -74 2 -91 -14 -10
-14 -14 -3 -26 8 -8 17 -29 21 -46 6 -30 4 -33 -18 -33 -19 0 -26 8 -36 40 -7
23 -18 40 -26 40 -11 0 -15 -12 -15 -40 0 -36 -2 -40 -25 -40 l-25 0 0 105 0
105 53 0 c29 0 62 -6 72 -14z m196 4 c24 -13 49 -61 49 -95 0 -34 -25 -82 -49
-95 -39 -20 -91 -12 -123 20 -28 28 -30 35 -26 82 4 40 12 57 32 75 29 25 83
31 117 13z m209 -10 c0 -16 -7 -20 -30 -20 l-30 0 0 -85 c0 -84 0 -85 -25 -85
-25 0 -25 1 -25 85 0 84 0 85 -25 85 -18 0 -25 5 -25 20 0 18 7 20 80 20 73 0
80 -2 80 -20z m225 0 c0 -10 -12 -16 -35 -18 -46 -5 -70 -28 -70 -67 0 -39 24
-62 70 -67 23 -2 35 -8 35 -18 0 -11 -13 -16 -48 -18 -41 -3 -51 1 -77 27 -48
48 -37 134 21 167 32 18 104 14 104 -6z m166 10 c24 -13 49 -61 49 -95 0 -34
-25 -82 -49 -95 -39 -20 -91 -12 -123 20 -28 28 -30 35 -26 82 4 40 12 57 32
75 29 25 83 31 117 13z m121 -66 c3 -81 17 -104 52 -91 13 5 16 22 16 87 0 79
0 80 25 80 25 0 25 -1 25 -80 0 -73 -3 -83 -25 -105 -26 -26 -72 -33 -105 -15
-26 14 -40 63 -40 136 0 61 1 64 25 64 23 0 24 -3 27 -76z m214 0 l18 -76 24
76 c20 69 25 76 48 76 20 0 24 -4 19 -19 -55 -173 -61 -186 -92 -189 -26 -3
-31 1 -36 25 -4 15 -18 63 -31 106 l-24 77 27 0 c26 0 29 -4 47 -76z m254 56
c0 -16 -7 -20 -35 -20 -31 0 -35 -3 -35 -25 0 -22 4 -25 35 -25 28 0 35 -4 35
-20 0 -16 -7 -20 -35 -20 -28 0 -35 -4 -35 -20 0 -17 7 -20 40 -20 33 0 40 -3
40 -20 0 -18 -7 -20 -65 -20 l-65 0 0 105 0 105 60 0 c53 0 60 -2 60 -20z
m165 6 c23 -17 25 -74 2 -91 -14 -10 -14 -14 -3 -26 8 -8 17 -29 21 -46 6 -30
4 -33 -18 -33 -19 0 -26 8 -36 40 -7 23 -18 40 -26 40 -11 0 -15 -12 -15 -40
0 -36 -2 -40 -25 -40 l-25 0 0 105 0 105 53 0 c29 0 62 -6 72 -14z m195 -6 c0
-15 -7 -20 -25 -20 -25 0 -25 -1 -25 -85 0 -84 0 -85 -25 -85 -25 0 -25 1 -25
85 l0 85 -30 0 c-23 0 -30 4 -30 20 0 18 7 20 80 20 73 0 80 -2 80 -20z m72
-56 c3 -81 17 -104 52 -91 13 5 16 22 16 87 0 79 0 80 25 80 25 0 25 -1 25
-80 0 -73 -3 -83 -25 -105 -26 -26 -72 -33 -105 -15 -26 14 -40 63 -40 136 0
61 1 64 25 64 23 0 24 -3 27 -76z m283 62 c23 -17 25 -74 2 -91 -14 -10 -14
-14 -3 -26 8 -8 17 -29 21 -46 6 -30 4 -33 -18 -33 -19 0 -26 8 -36 40 -7 23
-18 40 -26 40 -11 0 -15 -12 -15 -40 0 -36 -2 -40 -25 -40 l-25 0 0 105 0 105
53 0 c29 0 62 -6 72 -14z m175 -6 c0 -17 -7 -20 -40 -20 -36 0 -40 -2 -40 -25
0 -22 4 -25 40 -25 33 0 40 -3 40 -20 0 -17 -7 -20 -40 -20 -33 0 -40 -3 -40
-20 0 -17 7 -20 40 -20 33 0 40 -3 40 -20 0 -18 -7 -20 -65 -20 l-65 0 0 105
0 105 65 0 c58 0 65 -2 65 -20z"/>
<path d="M1807 2953 c-13 -12 -8 -73 6 -73 34 0 52 62 21 74 -19 7 -19 7 -27
-1z"/>
<path d="M2227 2953 c-10 -10 -8 -63 2 -63 24 0 41 14 41 35 0 13 -7 26 -16
29 -19 7 -19 7 -27 -1z"/>
<path d="M2400 2925 c0 -19 3 -35 6 -35 16 0 44 22 44 35 0 13 -28 35 -44 35
-3 0 -6 -16 -6 -35z"/>
<path d="M2580 2931 c-24 -47 -5 -111 35 -111 27 0 55 33 55 65 0 54 -67 88
-90 46z"/>
<path d="M3180 2931 c-24 -47 -5 -111 35 -111 27 0 55 33 55 65 0 54 -67 88
-90 46z"/>
<path d="M3950 2925 c0 -19 3 -35 6 -35 16 0 44 22 44 35 0 13 -28 35 -44 35
-3 0 -6 -16 -6 -35z"/>
<path d="M4500 2925 c0 -19 3 -35 6 -35 16 0 44 22 44 35 0 13 -28 35 -44 35
-3 0 -6 -16 -6 -35z"/>
<path d="M0 215 l0 -215 3250 0 3250 0 0 215 0 215 -3250 0 -3250 0 0 -215z
m390 15 c0 -82 -3 -100 -15 -100 -12 0 -15 18 -15 100 0 82 3 100 15 100 12 0
15 -18 15 -100z m-62 54 c19 -13 22 -24 22 -83 l0 -68 -42 0 c-67 0 -79 39
-26 87 17 16 28 33 24 37 -5 5 -11 2 -13 -4 -5 -15 -43 -17 -43 -3 0 12 37 50
48 50 4 0 18 -7 30 -16z m322 -75 c0 -64 -3 -79 -15 -79 -12 0 -15 14 -15 65
0 37 -4 65 -10 65 -6 0 -10 -28 -10 -65 0 -58 -2 -65 -20 -65 -18 0 -20 7 -20
65 0 37 -4 65 -10 65 -6 0 -10 -28 -10 -65 0 -51 -3 -65 -15 -65 -11 0 -15 13
-16 58 0 31 -2 67 -3 79 -2 20 1 22 50 21 30 -1 56 1 60 4 3 4 12 4 20 1 10
-4 14 -26 14 -84z m4967 54 c-3 -10 -5 -4 -5 12 0 17 2 24 5 18 2 -7 2 -21 0
-30z m-5132 15 c2 -7 5 -43 7 -80 l4 -67 -46 2 c-42 2 -45 4 -48 32 -3 23 3
35 30 56 18 15 29 31 24 36 -5 4 -11 2 -13 -4 -6 -17 -43 -17 -43 0 0 7 5 18
12 25 16 16 68 15 73 0z m215 -53 c0 -37 4 -65 10 -65 6 0 10 28 10 65 0 55 3
65 18 65 15 0 17 -10 12 -102 l-5 -103 -37 -3 c-28 -2 -38 1 -38 12 0 8 10 16
22 18 12 2 23 8 25 15 3 7 -3 9 -17 6 -31 -8 -40 11 -40 90 0 60 2 67 20 67
18 0 20 -7 20 -65z m5177 33 c-3 -7 -5 -2 -5 12 0 14 2 19 5 13 2 -7 2 -19 0
-25z m30 0 c-3 -7 -5 -2 -5 12 0 14 2 19 5 13 2 -7 2 -19 0 -25z m69 4 c-17
-16 -18 -16 -5 5 7 12 15 20 18 17 3 -2 -3 -12 -13 -22z m31 -4 c-3 -7 -5 -2
-5 12 0 14 2 19 5 13 2 -7 2 -19 0 -25z m73 4 c0 -8 -1 -13 -3 -11 -1 2 -9 12
-16 22 -12 15 -12 17 3 11 9 -3 16 -13 16 -22z m40 -4 c0 -5 -7 -3 -15 6 -8 8
-15 18 -15 22 0 3 7 1 15 -6 8 -7 15 -17 15 -22z m40 -1 c0 -2 -7 -4 -15 -4
-8 0 -15 9 -15 19 0 17 2 18 15 4 8 -8 15 -16 15 -19z m-493 1 c-3 -8 -6 -5
-6 6 -1 11 2 17 5 13 3 -3 4 -12 1 -19z m20 0 c-3 -8 -6 -5 -6 6 -1 11 2 17 5
13 3 -3 4 -12 1 -19z m40 0 c-3 -8 -6 -5 -6 6 -1 11 2 17 5 13 3 -3 4 -12 1
-19z m20 0 c-3 -8 -6 -5 -6 6 -1 11 2 17 5 13 3 -3 4 -12 1 -19z m290 0 c-3
-8 -6 -5 -6 6 -1 11 2 17 5 13 3 -3 4 -12 1 -19z m-270 -20 c-3 -8 -6 -5 -6 6
-1 11 2 17 5 13 3 -3 4 -12 1 -19z m110 -95 c-3 -10 -5 -4 -5 12 0 17 2 24 5
18 2 -7 2 -21 0 -30z m-277 -6 c0 -5 -4 -5 -10 -2 -5 3 -10 14 -10 23 0 15 2
15 10 2 5 -8 10 -19 10 -23z m20 21 c0 -9 4 -8 10 2 8 13 10 13 10 -1 0 -23
-11 -30 -27 -18 -15 13 -17 29 -3 29 6 0 10 -6 10 -12z m52 3 c8 12 10 12 15
0 5 -11 7 -11 15 0 7 11 8 9 6 -6 -2 -13 -11 -19 -28 -19 -17 0 -26 6 -27 19
-2 12 0 14 3 6 5 -11 8 -11 16 0z m70 0 c8 12 10 12 15 0 5 -11 7 -11 15 0 7
11 8 9 6 -6 -2 -13 -11 -19 -28 -19 -17 0 -26 6 -27 19 -2 12 0 14 3 6 5 -11
8 -11 16 0z m108 -11 c0 -13 -7 -20 -20 -20 -11 0 -20 5 -20 11 0 6 7 8 16 5
14 -5 15 -4 4 9 -10 12 -10 15 4 15 9 0 16 -8 16 -20z m78 -3 c5 -24 -15 -21
-21 4 -3 13 -1 19 6 16 7 -2 13 -11 15 -20z m80 -2 l3 -20 -13 20 c-12 19 -12
19 -19 -5 -7 -24 -7 -24 -8 -2 -1 26 -18 30 -24 5 -3 -13 -5 -12 -6 5 -1 20 3
23 31 20 24 -2 34 -9 36 -23z m38 16 c12 9 12 6 3 -20 -14 -40 -24 -39 -26 2
0 17 1 26 4 19 4 -10 8 -10 19 -1z m64 -1 c-13 -9 -13 -11 0 -20 13 -8 12 -10
-2 -10 -10 0 -18 6 -18 13 0 17 10 27 24 27 6 0 4 -5 -4 -10z m58 -13 c2 -12
-3 -17 -17 -17 -12 0 -21 6 -21 13 0 31 32 34 38 4z m80 -2 c3 -20 3 -20 -9 0
-12 19 -12 19 -20 0 -7 -17 -8 -18 -8 -2 -1 9 -5 17 -10 17 -5 0 -12 -8 -14
-17 -3 -13 -5 -12 -6 5 -1 20 3 23 31 20 24 -2 34 -9 36 -23z"/>
<path d="M290 180 c0 -11 5 -20 10 -20 6 0 10 9 10 20 0 11 -4 20 -10 20 -5 0
-10 -9 -10 -20z"/>
<path d="M441 196 c-11 -13 -11 -20 -3 -28 15 -15 24 -5 20 23 -3 21 -4 21
-17 5z"/>
<path d="M6140 150 c0 -5 5 -10 10 -10 6 0 10 5 10 10 0 6 -4 10 -10 10 -5 0
-10 -4 -10 -10z"/>
</g>
</svg>
