<?xml version="1.0" standalone="no"?>
<!DOCTYPE svg PUBLIC "-//W3C//DTD SVG 20010904//EN"
 "http://www.w3.org/TR/2001/REC-SVG-20010904/DTD/svg10.dtd">
<svg version="1.0" xmlns="http://www.w3.org/2000/svg"
 width="480.000000pt" height="478.000000pt" viewBox="0 0 480.000000 478.000000"
 preserveAspectRatio="xMidYMid meet">

<g transform="translate(0.000000,478.000000) scale(0.100000,-0.100000)"
fill="#000000" stroke="none">
<path d="M2255 3221 c-22 -10 -61 -37 -87 -61 -40 -34 -48 -48 -48 -76 0 -27
-5 -37 -22 -43 -14 -5 -31 -5 -42 1 -14 8 -24 5 -44 -15 l-25 -26 25 -33 c15
-18 40 -49 56 -68 l30 -35 27 25 c19 18 24 31 20 47 -5 22 23 63 44 63 13 0
61 -40 61 -52 0 -6 18 -32 40 -58 22 -26 40 -51 40 -54 0 -8 -299 -350 -310
-354 -4 -2 -65 64 -136 145 -70 81 -137 158 -149 171 l-21 23 -84 -97 c-75
-87 -84 -95 -91 -76 -7 18 -17 22 -49 22 l-40 0 0 -77 c-1 -66 -4 -82 -23
-104 -12 -15 -53 -63 -90 -108 l-68 -81 69 0 68 0 154 181 154 182 41 -45 c22
-25 75 -86 118 -136 l77 -90 -90 -106 -91 -106 -424 0 -425 0 0 -45 0 -45 468
1 467 0 274 325 c151 178 277 324 281 324 4 0 130 -146 281 -324 l274 -325
468 0 467 -1 0 45 0 45 -425 0 -424 0 -91 105 -90 106 102 120 c57 67 108 127
114 135 6 8 13 14 16 14 2 0 73 -81 158 -180 l154 -180 69 0 69 0 -33 38 c-19
21 -59 69 -89 106 -54 66 -55 69 -60 144 l-5 77 -38 3 c-31 3 -39 -1 -45 -19
-9 -23 -5 -27 -152 144 l-25 29 -149 -172 c-81 -94 -151 -170 -156 -168 -11 4
-310 345 -310 353 0 4 21 31 46 60 25 30 45 57 44 62 -1 4 9 17 23 27 25 18
27 18 52 2 22 -14 25 -22 20 -46 -5 -22 -1 -32 22 -50 l27 -21 29 33 c15 18
39 48 54 66 l26 33 -23 24 c-18 19 -29 22 -57 18 -40 -7 -53 6 -53 49 0 35
-55 88 -127 124 -48 24 -58 25 -108 16 -32 -5 -74 -6 -98 -1 -59 11 -67 11
-112 -10z m233 -47 c25 -10 32 -19 32 -41 0 -16 -5 -34 -12 -41 -8 -8 -8 -15
0 -24 8 -10 -3 -28 -43 -75 l-54 -63 -55 62 c-37 42 -52 66 -46 73 6 7 5 23
-2 42 -16 43 -5 60 49 77 50 15 75 13 131 -10z"/>
<path d="M1760 2804 c0 -10 254 -304 261 -302 7 4 259 298 259 303 0 4 -40
-14 -204 -90 l-59 -28 -56 28 c-102 51 -201 95 -201 89z"/>
<path d="M2931 2748 c-79 -37 -131 -56 -143 -52 -11 3 -67 28 -125 56 -57 27
-107 47 -109 45 -3 -3 52 -71 122 -152 l127 -148 25 29 c13 16 36 43 51 59 79
91 183 216 180 219 -2 2 -60 -23 -128 -56z"/>
<path d="M1450 2690 c0 -5 18 -10 40 -10 22 0 40 5 40 10 0 6 -18 10 -40 10
-22 0 -40 -4 -40 -10z"/>
<path d="M3285 2690 c-4 -6 12 -10 39 -10 25 0 46 5 46 10 0 6 -18 10 -39 10
-22 0 -43 -4 -46 -10z"/>
<path d="M2357 2509 c-9 -5 -24 -23 -32 -39 l-16 -30 46 0 46 0 -3 37 c-3 40
-13 48 -41 32z"/>
<path d="M2420 2480 l0 -40 46 0 46 0 -18 28 c-41 63 -74 68 -74 12z"/>
<path d="M1620 2460 c0 -39 1 -40 35 -40 34 0 35 1 35 40 0 39 -1 40 -35 40
-34 0 -35 -1 -35 -40z"/>
<path d="M1710 2460 c0 -39 1 -40 35 -40 34 0 35 1 35 40 0 39 -1 40 -35 40
-34 0 -35 -1 -35 -40z"/>
<path d="M3040 2460 c0 -39 1 -40 35 -40 34 0 35 1 35 40 0 39 -1 40 -35 40
-34 0 -35 -1 -35 -40z"/>
<path d="M3130 2460 c0 -39 1 -40 35 -40 34 0 35 1 35 40 0 39 -1 40 -35 40
-34 0 -35 -1 -35 -40z"/>
<path d="M2312 2368 c3 -43 3 -43 43 -43 40 0 40 0 43 43 l3 42 -46 0 -46 0 3
-42z"/>
<path d="M2422 2368 c3 -43 3 -43 43 -43 40 0 40 0 43 43 l3 42 -46 0 -46 0 3
-42z"/>
<path d="M1622 2363 c3 -35 6 -38 33 -38 27 0 30 3 33 38 3 37 3 37 -33 37
-36 0 -36 0 -33 -37z"/>
<path d="M1712 2363 c3 -35 6 -38 33 -38 27 0 30 3 33 38 3 37 3 37 -33 37
-36 0 -36 0 -33 -37z"/>
<path d="M3040 2359 c0 -39 1 -40 33 -37 29 3 32 6 35 41 3 36 3 37 -32 37
-35 0 -36 -1 -36 -41z"/>
<path d="M3130 2359 c0 -39 1 -40 33 -37 29 3 32 6 35 41 3 36 3 37 -32 37
-35 0 -36 -1 -36 -41z"/>
<path d="M1070 1781 c0 -110 -3 -206 -6 -215 -6 -15 116 -16 1335 -16 l1341 0
0 215 0 215 -1335 0 -1335 0 0 -199z m318 57 c7 -7 12 -24 12 -38 0 -32 -17
-50 -47 -50 -18 0 -23 -6 -23 -25 0 -16 -6 -25 -15 -25 -12 0 -15 15 -15 75
l0 75 38 0 c21 0 43 -5 50 -12z m72 -63 c0 -68 -2 -75 -20 -75 -18 0 -20 7
-20 75 0 68 2 75 20 75 18 0 20 -7 20 -75z m118 63 c-3 -7 -17 -14 -32 -16
-36 -5 -31 -36 7 -40 37 -4 35 -22 -3 -22 -38 0 -41 -27 -3 -32 48 -6 39 -28
-11 -28 l-46 0 0 75 0 75 46 0 c32 0 44 -4 42 -12z m120 0 c14 -14 16 -54 3
-63 -6 -3 -4 -20 5 -40 13 -33 13 -35 -6 -35 -12 0 -22 9 -26 24 -9 38 -34 42
-34 6 0 -23 -4 -30 -20 -30 -18 0 -20 7 -20 68 0 38 3 72 7 75 11 12 78 8 91
-5z m130 0 c14 -14 16 -54 3 -63 -6 -3 -4 -20 5 -40 13 -33 13 -35 -6 -35 -13
0 -22 9 -26 25 -3 14 -12 25 -20 25 -8 0 -14 -10 -14 -25 0 -18 -5 -25 -20
-25 -18 0 -20 7 -20 68 0 38 3 72 7 75 11 12 78 8 91 -5z m162 -15 c24 -31 22
-74 -7 -105 -24 -27 -87 -24 -107 4 -57 81 54 178 114 101z m130 12 c0 -8 -9
-15 -20 -15 -18 0 -20 -7 -20 -60 0 -47 -3 -60 -15 -60 -12 0 -15 13 -15 60 0
53 -2 60 -20 60 -11 0 -20 7 -20 15 0 12 13 15 55 15 42 0 55 -3 55 -15z m170
0 c0 -10 -10 -15 -30 -15 -22 0 -33 -6 -41 -24 -16 -35 3 -66 41 -66 20 0 30
-5 30 -15 0 -26 -75 -20 -94 7 -38 54 -3 128 61 128 23 0 33 -5 33 -15z m140
-7 c24 -26 26 -75 4 -106 -11 -16 -25 -22 -52 -22 -46 0 -58 8 -71 43 -30 79
63 145 119 85z m70 -25 c0 -56 10 -76 36 -71 16 3 20 14 22 61 2 42 7 57 17
57 11 0 15 -14 15 -56 0 -76 -11 -94 -60 -94 -49 0 -60 18 -60 94 0 43 3 56
15 56 11 0 15 -12 15 -47z m160 -4 c14 -56 21 -55 39 9 8 30 17 42 31 42 18 0
17 -4 -7 -75 -21 -62 -28 -75 -46 -75 -18 0 -25 11 -39 58 -9 32 -20 66 -24
75 -4 13 -1 17 14 17 16 0 23 -11 32 -51z m190 36 c0 -9 -9 -15 -25 -15 -18 0
-25 -5 -25 -20 0 -15 7 -20 25 -20 14 0 25 -4 25 -10 0 -5 -11 -10 -25 -10
-35 0 -32 -26 5 -33 48 -10 35 -27 -20 -27 l-50 0 0 75 0 75 45 0 c33 0 45 -4
45 -15z m124 -1 c18 -18 20 -36 6 -50 -8 -8 -8 -19 0 -38 14 -37 13 -46 -4
-46 -8 0 -21 12 -28 28 -15 31 -34 28 -32 -5 1 -16 -4 -23 -17 -23 -17 0 -19
9 -19 75 l0 75 39 0 c23 0 46 -7 55 -16z m146 5 c0 -6 -9 -13 -20 -16 -17 -5
-20 -14 -20 -64 0 -52 -2 -59 -20 -59 -18 0 -20 7 -20 59 0 50 -3 59 -20 64
-43 11 -19 27 40 27 37 0 60 -4 60 -11z m52 -46 c3 -51 6 -58 26 -61 21 -3 22
0 22 57 0 54 2 61 20 61 17 0 20 -7 20 -53 0 -67 -20 -97 -64 -97 -46 0 -56
15 -56 87 0 48 3 63 15 63 10 0 15 -15 17 -57z m204 49 c19 -13 23 -40 9 -58
-7 -11 -10 -23 -5 -29 4 -5 11 -20 14 -32 6 -19 3 -23 -12 -23 -13 0 -22 9
-26 25 -4 14 -13 25 -21 25 -9 0 -15 -10 -15 -25 0 -16 -6 -25 -15 -25 -12 0
-15 15 -15 75 l0 75 38 0 c20 0 42 -4 48 -8z m124 -7 c0 -9 -10 -15 -26 -15
-33 0 -30 -33 4 -38 29 -4 29 -20 0 -24 -31 -4 -30 -33 1 -33 13 0 26 -6 28
-12 3 -9 -9 -13 -41 -13 l-46 0 0 75 0 75 40 0 c29 0 40 -4 40 -15z"/>
<path d="M1337 1824 c-10 -10 -9 -54 2 -54 5 0 14 7 21 16 11 12 11 18 -1 30
-9 8 -18 11 -22 8z"/>
<path d="M1640 1805 c0 -16 6 -25 15 -25 21 0 31 30 14 41 -23 14 -29 11 -29
-16z"/>
<path d="M1777 1824 c-4 -4 -7 -16 -7 -26 0 -20 25 -25 36 -7 8 13 -19 43 -29
33z"/>
<path d="M1904 1807 c-3 -9 -4 -28 -2 -44 2 -22 9 -29 30 -31 23 -3 29 2 34
24 4 15 2 34 -3 43 -13 21 -52 26 -59 8z"/>
<path d="M2352 1808 c-26 -26 -10 -78 24 -78 28 0 46 33 34 65 -8 24 -40 31
-58 13z"/>
<path d="M2913 1814 c-8 -21 13 -42 28 -27 13 13 5 43 -11 43 -6 0 -13 -7 -17
-16z"/>
<path d="M3326 1823 c-3 -4 -6 -15 -6 -25 0 -24 33 -21 38 3 3 17 -21 33 -32
22z"/>
</g>
</svg>
