<?xml version="1.0" encoding="UTF-8"?>
<svg xmlns="http://www.w3.org/2000/svg" xmlns:xlink="http://www.w3.org/1999/xlink" width="91px" height="97px" viewBox="0 0 91 97" version="1.1">
<g id="surface1">
<path style=" stroke:none;fill-rule:nonzero;fill:rgb(0%,0%,0%);fill-opacity:1;" d="M 42.703125 29.371094 C 42.4375 29.480469 41.75 29.96875 41.175781 30.445312 C 40.238281 31.242188 40.140625 31.367188 40.195312 31.742188 C 40.324219 32.621094 39.695312 33.152344 38.9375 32.804688 C 38.601562 32.648438 38.519531 32.675781 38.097656 33.109375 L 37.621094 33.585938 L 38.628906 34.785156 C 39.203125 35.453125 39.707031 36 39.75 36 C 39.804688 36 40.058594 35.832031 40.296875 35.621094 C 40.6875 35.300781 40.730469 35.1875 40.671875 34.769531 C 40.601562 34.394531 40.660156 34.226562 40.925781 33.960938 C 41.105469 33.78125 41.386719 33.625 41.527344 33.625 C 41.890625 33.625 42.535156 34.140625 42.535156 34.4375 C 42.546875 34.5625 42.6875 34.839844 42.855469 35.035156 C 43.023438 35.246094 43.402344 35.691406 43.710938 36.039062 L 44.242188 36.695312 L 41.332031 40.003906 C 39.734375 41.832031 38.390625 43.378906 38.335938 43.433594 C 38.253906 43.53125 36.8125 41.914062 32.867188 37.335938 L 32.515625 36.945312 L 30.851562 38.871094 C 29.214844 40.757812 29.171875 40.785156 29.128906 40.351562 L 29.089844 39.90625 L 27.421875 39.90625 L 27.421875 42.835938 L 25.675781 44.859375 L 23.910156 46.882812 L 26.570312 46.882812 L 29.394531 43.5625 C 30.949219 41.746094 32.292969 40.171875 32.390625 40.074219 C 32.503906 39.945312 33.035156 40.476562 34.742188 42.488281 L 36.953125 45.066406 L 35.300781 47.019531 L 33.648438 48.960938 L 25.507812 48.972656 L 17.347656 48.972656 L 17.347656 50.789062 L 35.046875 50.789062 L 40.28125 44.648438 C 43.148438 41.273438 45.542969 38.480469 45.613281 38.441406 C 45.667969 38.414062 46.789062 39.640625 48.101562 41.203125 C 49.417969 42.75 51.78125 45.527344 53.347656 47.371094 L 56.1875 50.71875 L 65.03125 50.761719 L 73.875 50.789062 L 73.875 48.972656 L 57.6875 48.972656 L 56.089844 47.089844 C 55.210938 46.058594 54.484375 45.164062 54.46875 45.109375 C 54.414062 44.96875 58.597656 40.042969 58.765625 40.042969 C 58.832031 40.042969 60.203125 41.578125 61.800781 43.464844 L 64.710938 46.867188 L 66.011719 46.882812 C 67.214844 46.882812 67.296875 46.867188 67.160156 46.628906 C 67.074219 46.503906 66.292969 45.570312 65.410156 44.578125 L 63.816406 42.765625 L 63.800781 41.328125 L 63.800781 39.90625 L 62.976562 39.90625 C 62.148438 39.90625 62.136719 39.917969 62.09375 40.308594 C 62.050781 40.714844 61.996094 40.671875 60.863281 39.332031 C 60.203125 38.566406 59.476562 37.714844 59.238281 37.449219 L 58.804688 36.945312 L 55.980469 40.199219 C 54.414062 41.996094 53.109375 43.449219 53.070312 43.449219 C 52.945312 43.421875 47.152344 36.78125 47.152344 36.667969 C 47.152344 36.613281 47.527344 36.152344 47.992188 35.621094 C 48.453125 35.105469 48.800781 34.601562 48.761719 34.503906 C 48.691406 34.296875 49.472656 33.625 49.796875 33.625 C 49.921875 33.625 50.171875 33.722656 50.339844 33.847656 C 50.605469 34.03125 50.664062 34.183594 50.636719 34.617188 C 50.59375 35.050781 50.664062 35.230469 51 35.578125 C 51.222656 35.816406 51.488281 35.984375 51.570312 35.96875 C 51.65625 35.941406 52.1875 35.398438 52.734375 34.742188 L 53.742188 33.554688 L 53.238281 33.097656 C 52.832031 32.734375 52.691406 32.664062 52.480469 32.789062 C 52.0625 33.011719 51.65625 32.957031 51.335938 32.636719 C 51.109375 32.414062 51.070312 32.246094 51.125 31.839844 C 51.207031 31.339844 51.195312 31.308594 50.132812 30.429688 C 48.675781 29.230469 48.339844 29.105469 46.941406 29.21875 C 45.667969 29.328125 45.78125 29.328125 44.28125 29.230469 C 43.457031 29.175781 43.039062 29.21875 42.703125 29.371094 Z M 47.09375 30.261719 C 47.835938 30.597656 47.960938 30.960938 47.597656 31.660156 C 47.359375 32.105469 47.347656 32.230469 47.5 32.382812 C 47.667969 32.550781 47.542969 32.761719 46.703125 33.722656 C 46.15625 34.367188 45.683594 34.882812 45.625 34.867188 C 45.542969 34.867188 44.492188 33.640625 43.878906 32.832031 C 43.652344 32.550781 43.640625 32.46875 43.808594 32.371094 C 43.960938 32.273438 43.945312 32.160156 43.75 31.742188 C 43.625 31.464844 43.511719 31.171875 43.511719 31.074219 C 43.511719 30.710938 43.890625 30.390625 44.632812 30.125 C 45.5 29.816406 46.171875 29.859375 47.09375 30.261719 Z M 47.09375 30.261719 "/>
<path style=" stroke:none;fill-rule:nonzero;fill:rgb(0%,0%,0%);fill-opacity:1;" d="M 33.46875 37.503906 C 37.539062 42.332031 38.253906 43.113281 38.40625 42.945312 C 38.503906 42.847656 39.539062 41.636719 40.714844 40.253906 C 41.890625 38.871094 42.996094 37.601562 43.148438 37.421875 L 43.441406 37.101562 L 42.8125 37.367188 C 42.464844 37.519531 41.332031 38.035156 40.296875 38.511719 C 39.261719 39 38.351562 39.390625 38.265625 39.390625 C 38.195312 39.390625 37.035156 38.871094 35.691406 38.246094 C 34.347656 37.628906 33.230469 37.113281 33.1875 37.113281 C 33.160156 37.113281 33.285156 37.296875 33.46875 37.503906 Z M 33.46875 37.503906 "/>
<path style=" stroke:none;fill-rule:nonzero;fill:rgb(0%,0%,0%);fill-opacity:1;" d="M 48.226562 37.433594 C 49.585938 39.136719 53.109375 43.085938 53.179688 43.015625 C 53.558594 42.625 58.175781 37.183594 58.148438 37.140625 C 58.121094 37.128906 57.015625 37.628906 55.671875 38.246094 C 54.328125 38.871094 53.167969 39.390625 53.082031 39.390625 C 53.011719 39.390625 52.214844 39.054688 51.335938 38.648438 C 47.976562 37.085938 47.933594 37.074219 48.226562 37.433594 Z M 48.226562 37.433594 "/>
<path style=" stroke:none;fill-rule:nonzero;fill:rgb(0%,0%,0%);fill-opacity:1;" d="M 27.519531 39.304688 C 27.285156 39.542969 27.492188 39.625 28.261719 39.625 C 28.921875 39.625 29.101562 39.585938 29.101562 39.417969 C 29.101562 39.261719 28.921875 39.207031 28.359375 39.207031 C 27.941406 39.207031 27.5625 39.25 27.519531 39.304688 Z M 27.519531 39.304688 "/>
<path style=" stroke:none;fill-rule:nonzero;fill:rgb(0%,0%,0%);fill-opacity:1;" d="M 62.121094 39.417969 C 62.121094 39.585938 62.304688 39.625 62.960938 39.625 C 63.617188 39.625 63.800781 39.585938 63.800781 39.417969 C 63.800781 39.25 63.617188 39.207031 62.960938 39.207031 C 62.304688 39.207031 62.121094 39.25 62.121094 39.417969 Z M 62.121094 39.417969 "/>
<path style=" stroke:none;fill-rule:nonzero;fill:rgb(0%,0%,0%);fill-opacity:1;" d="M 45.976562 42.652344 C 45.933594 42.710938 45.890625 43.074219 45.890625 43.492188 L 45.890625 44.230469 L 46.660156 44.230469 C 47.542969 44.230469 47.625 44.0625 47.136719 43.378906 C 46.828125 42.945312 46.128906 42.515625 45.976562 42.652344 Z M 45.976562 42.652344 "/>
<path style=" stroke:none;fill-rule:nonzero;fill:rgb(0%,0%,0%);fill-opacity:1;" d="M 44.578125 42.988281 C 44.253906 43.238281 43.792969 43.921875 43.792969 44.160156 C 43.792969 44.203125 44.15625 44.230469 44.589844 44.203125 C 45.484375 44.160156 45.570312 44.050781 45.402344 43.171875 C 45.304688 42.625 45.09375 42.585938 44.578125 42.988281 Z M 44.578125 42.988281 "/>
<path style=" stroke:none;fill-rule:nonzero;fill:rgb(0%,0%,0%);fill-opacity:1;" d="M 30.78125 43.742188 L 30.78125 44.523438 L 31.453125 44.480469 L 32.109375 44.441406 L 32.109375 43.042969 L 31.453125 43.003906 L 30.78125 42.960938 Z M 30.78125 43.742188 "/>
<path style=" stroke:none;fill-rule:nonzero;fill:rgb(0%,0%,0%);fill-opacity:1;" d="M 32.460938 43.726562 L 32.460938 44.507812 L 33.875 44.507812 L 33.832031 43.769531 L 33.789062 43.042969 L 33.132812 43.003906 L 32.460938 42.960938 Z M 32.460938 43.726562 "/>
<path style=" stroke:none;fill-rule:nonzero;fill:rgb(0%,0%,0%);fill-opacity:1;" d="M 57.503906 43.742188 L 57.503906 44.507812 L 58.902344 44.507812 L 58.902344 42.976562 L 57.503906 42.976562 Z M 57.503906 43.742188 "/>
<path style=" stroke:none;fill-rule:nonzero;fill:rgb(0%,0%,0%);fill-opacity:1;" d="M 59.183594 43.742188 L 59.183594 44.507812 L 60.582031 44.507812 L 60.582031 42.976562 L 59.183594 42.976562 Z M 59.183594 43.742188 "/>
<path style=" stroke:none;fill-rule:nonzero;fill:rgb(0%,0%,0%);fill-opacity:1;" d="M 43.792969 45.484375 L 43.792969 46.335938 L 44.589844 46.296875 L 45.386719 46.253906 L 45.445312 45.445312 L 45.484375 44.648438 L 43.792969 44.648438 Z M 43.792969 45.484375 "/>
<path style=" stroke:none;fill-rule:nonzero;fill:rgb(0%,0%,0%);fill-opacity:1;" d="M 45.890625 45.484375 L 45.890625 46.324219 L 47.542969 46.324219 L 47.527344 45.515625 L 47.5 44.71875 L 46.703125 44.675781 L 45.890625 44.636719 Z M 45.890625 45.484375 "/>
<path style=" stroke:none;fill-rule:nonzero;fill:rgb(0%,0%,0%);fill-opacity:1;" d="M 30.78125 45.554688 L 30.78125 46.335938 L 31.453125 46.296875 L 32.109375 46.253906 L 32.109375 44.859375 L 31.453125 44.816406 L 30.78125 44.773438 Z M 30.78125 45.554688 "/>
<path style=" stroke:none;fill-rule:nonzero;fill:rgb(0%,0%,0%);fill-opacity:1;" d="M 32.460938 45.542969 L 32.460938 46.324219 L 33.875 46.324219 L 33.832031 45.582031 L 33.789062 44.859375 L 33.132812 44.816406 L 32.460938 44.773438 Z M 32.460938 45.542969 "/>
<path style=" stroke:none;fill-rule:nonzero;fill:rgb(0%,0%,0%);fill-opacity:1;" d="M 57.503906 45.554688 L 57.503906 46.324219 L 58.902344 46.324219 L 58.902344 44.789062 L 57.503906 44.789062 Z M 57.503906 45.554688 "/>
<path style=" stroke:none;fill-rule:nonzero;fill:rgb(0%,0%,0%);fill-opacity:1;" d="M 59.183594 45.554688 L 59.183594 46.324219 L 60.582031 46.324219 L 60.582031 44.789062 L 59.183594 44.789062 Z M 59.183594 45.554688 "/>
<path style=" stroke:none;fill-rule:nonzero;fill:rgb(0%,0%,0%);fill-opacity:1;" d="M 20.148438 56.925781 L 20.148438 60.972656 L 70.9375 60.972656 L 70.9375 52.882812 L 20.148438 52.882812 Z M 26.304688 55.53125 C 26.457031 55.6875 26.582031 55.992188 26.582031 56.230469 C 26.582031 56.46875 26.457031 56.773438 26.304688 56.925781 C 26.148438 57.082031 25.84375 57.207031 25.605469 57.207031 C 25.210938 57.207031 25.183594 57.25 25.183594 57.695312 C 25.183594 58.128906 25.140625 58.183594 24.835938 58.183594 C 24.484375 58.183594 24.484375 58.183594 24.484375 56.816406 C 24.484375 56.0625 24.527344 55.394531 24.582031 55.351562 C 24.625 55.296875 24.976562 55.253906 25.351562 55.253906 C 25.84375 55.253906 26.109375 55.335938 26.304688 55.53125 Z M 27.703125 56.71875 L 27.703125 58.183594 L 27.003906 58.183594 L 27.003906 55.253906 L 27.703125 55.253906 Z M 29.941406 55.53125 C 29.941406 55.769531 29.84375 55.8125 29.382812 55.8125 C 28.878906 55.8125 28.820312 55.839844 28.820312 56.160156 C 28.820312 56.46875 28.878906 56.507812 29.382812 56.507812 C 29.84375 56.507812 29.941406 56.550781 29.941406 56.789062 C 29.941406 57.023438 29.84375 57.066406 29.382812 57.066406 C 28.921875 57.066406 28.820312 57.109375 28.820312 57.347656 C 28.820312 57.582031 28.921875 57.625 29.382812 57.625 C 29.84375 57.625 29.941406 57.667969 29.941406 57.902344 C 29.941406 58.15625 29.84375 58.183594 29.03125 58.183594 L 28.121094 58.183594 L 28.121094 55.253906 L 29.03125 55.253906 C 29.84375 55.253906 29.941406 55.28125 29.941406 55.53125 Z M 32.152344 55.476562 C 32.515625 55.726562 32.570312 56.382812 32.25 56.648438 C 32.109375 56.761719 32.082031 56.886719 32.167969 56.984375 C 32.234375 57.066406 32.363281 57.375 32.433594 57.667969 C 32.570312 58.183594 32.570312 58.195312 32.222656 58.15625 C 31.957031 58.128906 31.832031 57.988281 31.703125 57.625 C 31.621094 57.359375 31.4375 57.121094 31.3125 57.09375 C 31.101562 57.054688 31.0625 57.152344 31.0625 57.609375 C 31.0625 58.128906 31.03125 58.183594 30.710938 58.183594 C 30.359375 58.183594 30.359375 58.183594 30.359375 56.816406 C 30.359375 56.0625 30.402344 55.394531 30.460938 55.351562 C 30.640625 55.167969 31.84375 55.253906 32.152344 55.476562 Z M 34.628906 55.449219 C 34.949219 55.6875 34.976562 56.480469 34.65625 56.71875 C 34.460938 56.859375 34.460938 56.914062 34.613281 57.082031 C 34.726562 57.191406 34.851562 57.484375 34.910156 57.722656 C 34.992188 58.140625 34.964844 58.183594 34.65625 58.183594 C 34.390625 58.183594 34.292969 58.070312 34.152344 57.625 C 34.054688 57.304688 33.902344 57.066406 33.789062 57.066406 C 33.636719 57.066406 33.578125 57.234375 33.578125 57.625 C 33.578125 58.128906 33.550781 58.183594 33.230469 58.183594 L 32.878906 58.183594 L 32.878906 55.253906 L 33.621094 55.253906 C 34.027344 55.253906 34.488281 55.335938 34.628906 55.449219 Z M 37.371094 55.394531 C 37.707031 55.574219 38.054688 56.242188 38.054688 56.71875 C 38.054688 57.191406 37.707031 57.863281 37.371094 58.042969 C 36.824219 58.324219 36.097656 58.210938 35.648438 57.765625 C 35.257812 57.375 35.230469 57.277344 35.285156 56.621094 C 35.34375 56.0625 35.453125 55.824219 35.734375 55.574219 C 36.140625 55.226562 36.894531 55.140625 37.371094 55.394531 Z M 40.296875 55.53125 C 40.296875 55.753906 40.195312 55.8125 39.875 55.8125 L 39.457031 55.8125 L 39.457031 56.996094 C 39.457031 58.167969 39.457031 58.183594 39.105469 58.183594 C 38.757812 58.183594 38.757812 58.167969 38.757812 56.996094 C 38.757812 55.824219 38.757812 55.8125 38.40625 55.8125 C 38.15625 55.8125 38.054688 55.742188 38.054688 55.53125 C 38.054688 55.28125 38.15625 55.253906 39.175781 55.253906 C 40.195312 55.253906 40.296875 55.28125 40.296875 55.53125 Z M 43.441406 55.53125 C 43.441406 55.671875 43.273438 55.753906 42.953125 55.785156 C 42.308594 55.851562 41.972656 56.175781 41.972656 56.71875 C 41.972656 57.261719 42.308594 57.582031 42.953125 57.652344 C 43.273438 57.679688 43.441406 57.765625 43.441406 57.902344 C 43.441406 58.058594 43.261719 58.128906 42.773438 58.15625 C 42.199219 58.195312 42.058594 58.140625 41.695312 57.777344 C 41.023438 57.109375 41.175781 55.910156 41.988281 55.449219 C 42.4375 55.199219 43.441406 55.253906 43.441406 55.53125 Z M 45.765625 55.394531 C 46.101562 55.574219 46.453125 56.242188 46.453125 56.71875 C 46.453125 57.191406 46.101562 57.863281 45.765625 58.042969 C 45.21875 58.324219 44.492188 58.210938 44.042969 57.765625 C 43.652344 57.375 43.625 57.277344 43.679688 56.621094 C 43.738281 56.0625 43.847656 55.824219 44.128906 55.574219 C 44.535156 55.226562 45.289062 55.140625 45.765625 55.394531 Z M 47.457031 56.3125 C 47.5 57.445312 47.695312 57.765625 48.1875 57.582031 C 48.367188 57.511719 48.410156 57.277344 48.410156 56.371094 C 48.410156 55.265625 48.410156 55.253906 48.761719 55.253906 C 49.109375 55.253906 49.109375 55.265625 49.109375 56.371094 C 49.109375 57.386719 49.066406 57.527344 48.761719 57.835938 C 48.394531 58.195312 47.753906 58.292969 47.289062 58.042969 C 46.925781 57.847656 46.730469 57.164062 46.730469 56.144531 C 46.730469 55.296875 46.746094 55.253906 47.082031 55.253906 C 47.402344 55.253906 47.417969 55.296875 47.457031 56.3125 Z M 50.453125 56.3125 L 50.703125 57.375 L 51.039062 56.3125 C 51.320312 55.351562 51.390625 55.253906 51.710938 55.253906 C 51.992188 55.253906 52.046875 55.308594 51.976562 55.519531 C 51.207031 57.933594 51.125 58.113281 50.691406 58.15625 C 50.328125 58.195312 50.257812 58.140625 50.1875 57.804688 C 50.132812 57.597656 49.933594 56.925781 49.753906 56.328125 L 49.417969 55.253906 L 49.796875 55.253906 C 50.160156 55.253906 50.199219 55.308594 50.453125 56.3125 Z M 54.007812 55.53125 C 54.007812 55.753906 53.910156 55.8125 53.515625 55.8125 C 53.082031 55.8125 53.027344 55.851562 53.027344 56.160156 C 53.027344 56.46875 53.082031 56.507812 53.515625 56.507812 C 53.910156 56.507812 54.007812 56.566406 54.007812 56.789062 C 54.007812 57.011719 53.910156 57.066406 53.515625 57.066406 C 53.125 57.066406 53.027344 57.121094 53.027344 57.347656 C 53.027344 57.582031 53.125 57.625 53.585938 57.625 C 54.046875 57.625 54.148438 57.667969 54.148438 57.902344 C 54.148438 58.15625 54.046875 58.183594 53.238281 58.183594 L 52.328125 58.183594 L 52.328125 55.253906 L 53.167969 55.253906 C 53.910156 55.253906 54.007812 55.28125 54.007812 55.53125 Z M 56.316406 55.449219 C 56.636719 55.6875 56.664062 56.480469 56.34375 56.71875 C 56.148438 56.859375 56.148438 56.914062 56.300781 57.082031 C 56.414062 57.191406 56.539062 57.484375 56.59375 57.722656 C 56.679688 58.140625 56.652344 58.183594 56.34375 58.183594 C 56.078125 58.183594 55.980469 58.070312 55.839844 57.625 C 55.742188 57.304688 55.585938 57.066406 55.476562 57.066406 C 55.320312 57.066406 55.265625 57.234375 55.265625 57.625 C 55.265625 58.128906 55.238281 58.183594 54.917969 58.183594 L 54.566406 58.183594 L 54.566406 55.253906 L 55.308594 55.253906 C 55.714844 55.253906 56.175781 55.335938 56.316406 55.449219 Z M 59.042969 55.53125 C 59.042969 55.742188 58.945312 55.8125 58.695312 55.8125 C 58.34375 55.8125 58.34375 55.824219 58.34375 56.996094 C 58.34375 58.167969 58.34375 58.183594 57.996094 58.183594 C 57.644531 58.183594 57.644531 58.167969 57.644531 56.996094 L 57.644531 55.8125 L 57.226562 55.8125 C 56.902344 55.8125 56.804688 55.753906 56.804688 55.53125 C 56.804688 55.28125 56.902344 55.253906 57.925781 55.253906 C 58.945312 55.253906 59.042969 55.28125 59.042969 55.53125 Z M 60.050781 56.3125 C 60.09375 57.445312 60.289062 57.765625 60.777344 57.582031 C 60.960938 57.511719 61.003906 57.277344 61.003906 56.371094 C 61.003906 55.265625 61.003906 55.253906 61.351562 55.253906 C 61.703125 55.253906 61.703125 55.265625 61.703125 56.371094 C 61.703125 57.386719 61.660156 57.527344 61.351562 57.835938 C 60.988281 58.195312 60.34375 58.292969 59.882812 58.042969 C 59.519531 57.847656 59.324219 57.164062 59.324219 56.144531 C 59.324219 55.296875 59.335938 55.253906 59.671875 55.253906 C 59.996094 55.253906 60.007812 55.296875 60.050781 56.3125 Z M 64.011719 55.449219 C 64.332031 55.6875 64.359375 56.480469 64.039062 56.71875 C 63.84375 56.859375 63.84375 56.914062 63.996094 57.082031 C 64.109375 57.191406 64.234375 57.484375 64.289062 57.722656 C 64.375 58.140625 64.347656 58.183594 64.039062 58.183594 C 63.773438 58.183594 63.675781 58.070312 63.535156 57.625 C 63.4375 57.304688 63.28125 57.066406 63.171875 57.066406 C 63.015625 57.066406 62.960938 57.234375 62.960938 57.625 C 62.960938 58.128906 62.933594 58.183594 62.613281 58.183594 L 62.261719 58.183594 L 62.261719 55.253906 L 63.003906 55.253906 C 63.410156 55.253906 63.871094 55.335938 64.011719 55.449219 Z M 66.460938 55.53125 C 66.460938 55.769531 66.359375 55.8125 65.898438 55.8125 C 65.394531 55.8125 65.339844 55.839844 65.339844 56.160156 C 65.339844 56.46875 65.394531 56.507812 65.898438 56.507812 C 66.359375 56.507812 66.460938 56.550781 66.460938 56.789062 C 66.460938 57.023438 66.359375 57.066406 65.898438 57.066406 C 65.4375 57.066406 65.339844 57.109375 65.339844 57.347656 C 65.339844 57.582031 65.4375 57.625 65.898438 57.625 C 66.359375 57.625 66.460938 57.667969 66.460938 57.902344 C 66.460938 58.15625 66.359375 58.183594 65.550781 58.183594 L 64.640625 58.183594 L 64.640625 55.253906 L 65.550781 55.253906 C 66.359375 55.253906 66.460938 55.28125 66.460938 55.53125 Z M 66.460938 55.53125 "/>
<path style=" stroke:none;fill-rule:nonzero;fill:rgb(0%,0%,0%);fill-opacity:1;" d="M 25.28125 55.769531 C 25.101562 55.9375 25.171875 56.789062 25.367188 56.789062 C 25.84375 56.789062 26.09375 55.921875 25.660156 55.753906 C 25.394531 55.65625 25.394531 55.65625 25.28125 55.769531 Z M 25.28125 55.769531 "/>
<path style=" stroke:none;fill-rule:nonzero;fill:rgb(0%,0%,0%);fill-opacity:1;" d="M 31.160156 55.769531 C 31.019531 55.910156 31.046875 56.648438 31.1875 56.648438 C 31.523438 56.648438 31.761719 56.453125 31.761719 56.160156 C 31.761719 55.980469 31.664062 55.796875 31.535156 55.753906 C 31.269531 55.65625 31.269531 55.65625 31.160156 55.769531 Z M 31.160156 55.769531 "/>
<path style=" stroke:none;fill-rule:nonzero;fill:rgb(0%,0%,0%);fill-opacity:1;" d="M 33.578125 56.160156 C 33.578125 56.425781 33.621094 56.648438 33.664062 56.648438 C 33.886719 56.648438 34.277344 56.339844 34.277344 56.160156 C 34.277344 55.980469 33.886719 55.671875 33.664062 55.671875 C 33.621094 55.671875 33.578125 55.894531 33.578125 56.160156 Z M 33.578125 56.160156 "/>
<path style=" stroke:none;fill-rule:nonzero;fill:rgb(0%,0%,0%);fill-opacity:1;" d="M 36.097656 56.078125 C 35.761719 56.730469 36.027344 57.625 36.585938 57.625 C 36.964844 57.625 37.355469 57.164062 37.355469 56.71875 C 37.355469 55.964844 36.417969 55.492188 36.097656 56.078125 Z M 36.097656 56.078125 "/>
<path style=" stroke:none;fill-rule:nonzero;fill:rgb(0%,0%,0%);fill-opacity:1;" d="M 44.492188 56.078125 C 44.15625 56.730469 44.421875 57.625 44.980469 57.625 C 45.359375 57.625 45.75 57.164062 45.75 56.71875 C 45.75 55.964844 44.8125 55.492188 44.492188 56.078125 Z M 44.492188 56.078125 "/>
<path style=" stroke:none;fill-rule:nonzero;fill:rgb(0%,0%,0%);fill-opacity:1;" d="M 55.265625 56.160156 C 55.265625 56.425781 55.308594 56.648438 55.351562 56.648438 C 55.574219 56.648438 55.964844 56.339844 55.964844 56.160156 C 55.964844 55.980469 55.574219 55.671875 55.351562 55.671875 C 55.308594 55.671875 55.265625 55.894531 55.265625 56.160156 Z M 55.265625 56.160156 "/>
<path style=" stroke:none;fill-rule:nonzero;fill:rgb(0%,0%,0%);fill-opacity:1;" d="M 62.960938 56.160156 C 62.960938 56.425781 63.003906 56.648438 63.046875 56.648438 C 63.269531 56.648438 63.660156 56.339844 63.660156 56.160156 C 63.660156 55.980469 63.269531 55.671875 63.046875 55.671875 C 63.003906 55.671875 62.960938 55.894531 62.960938 56.160156 Z M 62.960938 56.160156 "/>
<path style=" stroke:none;fill-rule:nonzero;fill:rgb(0%,0%,0%);fill-opacity:1;" d="M 0 93.972656 L 0 96.972656 L 90.945312 96.972656 L 90.945312 90.972656 L 0 90.972656 Z M 5.457031 93.761719 C 5.457031 94.90625 5.414062 95.160156 5.246094 95.160156 C 5.078125 95.160156 5.035156 94.90625 5.035156 93.761719 C 5.035156 92.617188 5.078125 92.367188 5.246094 92.367188 C 5.414062 92.367188 5.457031 92.617188 5.457031 93.761719 Z M 4.589844 93.007812 C 4.855469 93.191406 4.898438 93.34375 4.898438 94.167969 L 4.898438 95.117188 L 4.308594 95.117188 C 3.371094 95.117188 3.203125 94.570312 3.945312 93.902344 C 4.183594 93.679688 4.335938 93.441406 4.28125 93.386719 C 4.210938 93.316406 4.128906 93.359375 4.097656 93.441406 C 4.03125 93.652344 3.496094 93.679688 3.496094 93.484375 C 3.496094 93.316406 4.015625 92.785156 4.167969 92.785156 C 4.226562 92.785156 4.421875 92.882812 4.589844 93.007812 Z M 9.09375 94.054688 C 9.09375 94.949219 9.050781 95.160156 8.882812 95.160156 C 8.714844 95.160156 8.675781 94.960938 8.675781 94.25 C 8.675781 93.734375 8.617188 93.34375 8.535156 93.34375 C 8.449219 93.34375 8.394531 93.734375 8.394531 94.25 C 8.394531 95.0625 8.367188 95.160156 8.113281 95.160156 C 7.863281 95.160156 7.835938 95.0625 7.835938 94.25 C 7.835938 93.734375 7.777344 93.34375 7.695312 93.34375 C 7.609375 93.34375 7.554688 93.734375 7.554688 94.25 C 7.554688 94.960938 7.511719 95.160156 7.34375 95.160156 C 7.191406 95.160156 7.136719 94.976562 7.121094 94.347656 C 7.121094 93.917969 7.09375 93.414062 7.078125 93.246094 C 7.050781 92.96875 7.09375 92.941406 7.777344 92.953125 C 8.199219 92.96875 8.5625 92.941406 8.617188 92.898438 C 8.660156 92.84375 8.785156 92.84375 8.898438 92.882812 C 9.039062 92.941406 9.09375 93.246094 9.09375 94.054688 Z M 78.589844 93.300781 C 78.546875 93.441406 78.519531 93.359375 78.519531 93.136719 C 78.519531 92.898438 78.546875 92.800781 78.589844 92.882812 C 78.617188 92.980469 78.617188 93.175781 78.589844 93.300781 Z M 6.785156 93.09375 C 6.8125 93.191406 6.855469 93.691406 6.882812 94.210938 L 6.941406 95.144531 L 6.296875 95.117188 C 5.707031 95.089844 5.667969 95.0625 5.625 94.667969 C 5.582031 94.347656 5.667969 94.179688 6.042969 93.886719 C 6.296875 93.679688 6.449219 93.457031 6.378906 93.386719 C 6.308594 93.332031 6.226562 93.359375 6.199219 93.441406 C 6.113281 93.679688 5.597656 93.679688 5.597656 93.441406 C 5.597656 93.34375 5.667969 93.191406 5.765625 93.09375 C 5.988281 92.871094 6.714844 92.882812 6.785156 93.09375 Z M 9.792969 93.832031 C 9.792969 94.347656 9.851562 94.738281 9.933594 94.738281 C 10.019531 94.738281 10.074219 94.347656 10.074219 93.832031 C 10.074219 93.066406 10.117188 92.925781 10.324219 92.925781 C 10.535156 92.925781 10.5625 93.066406 10.492188 94.347656 L 10.421875 95.785156 L 9.90625 95.828125 C 9.515625 95.855469 9.375 95.8125 9.375 95.660156 C 9.375 95.550781 9.515625 95.4375 9.683594 95.410156 C 9.851562 95.382812 10.003906 95.296875 10.03125 95.199219 C 10.074219 95.101562 9.988281 95.074219 9.792969 95.117188 C 9.359375 95.226562 9.234375 94.960938 9.234375 93.859375 C 9.234375 93.023438 9.261719 92.925781 9.515625 92.925781 C 9.765625 92.925781 9.792969 93.023438 9.792969 93.832031 Z M 82.226562 93.371094 C 82.183594 93.46875 82.15625 93.398438 82.15625 93.203125 C 82.15625 93.007812 82.183594 92.941406 82.226562 93.023438 C 82.253906 93.121094 82.253906 93.289062 82.226562 93.371094 Z M 82.648438 93.371094 C 82.605469 93.46875 82.578125 93.398438 82.578125 93.203125 C 82.578125 93.007812 82.605469 92.941406 82.648438 93.023438 C 82.675781 93.121094 82.675781 93.289062 82.648438 93.371094 Z M 83.613281 93.316406 C 83.375 93.539062 83.359375 93.539062 83.542969 93.246094 C 83.640625 93.078125 83.753906 92.96875 83.792969 93.007812 C 83.835938 93.039062 83.753906 93.175781 83.613281 93.316406 Z M 84.046875 93.371094 C 84.003906 93.46875 83.976562 93.398438 83.976562 93.203125 C 83.976562 93.007812 84.003906 92.941406 84.046875 93.023438 C 84.074219 93.121094 84.074219 93.289062 84.046875 93.371094 Z M 85.066406 93.316406 C 85.066406 93.429688 85.054688 93.496094 85.027344 93.46875 C 85.011719 93.441406 84.898438 93.300781 84.800781 93.164062 C 84.632812 92.953125 84.632812 92.925781 84.84375 93.007812 C 84.96875 93.050781 85.066406 93.191406 85.066406 93.316406 Z M 85.628906 93.371094 C 85.628906 93.441406 85.53125 93.414062 85.417969 93.289062 C 85.304688 93.175781 85.207031 93.039062 85.207031 92.980469 C 85.207031 92.941406 85.304688 92.96875 85.417969 93.066406 C 85.53125 93.164062 85.628906 93.300781 85.628906 93.371094 Z M 86.1875 93.386719 C 86.1875 93.414062 86.089844 93.441406 85.976562 93.441406 C 85.863281 93.441406 85.765625 93.316406 85.765625 93.175781 C 85.765625 92.941406 85.796875 92.925781 85.976562 93.121094 C 86.089844 93.234375 86.1875 93.34375 86.1875 93.386719 Z M 79.289062 93.371094 C 79.246094 93.484375 79.207031 93.441406 79.207031 93.289062 C 79.191406 93.136719 79.234375 93.050781 79.273438 93.105469 C 79.316406 93.148438 79.332031 93.273438 79.289062 93.371094 Z M 79.570312 93.371094 C 79.527344 93.484375 79.484375 93.441406 79.484375 93.289062 C 79.472656 93.136719 79.511719 93.050781 79.554688 93.105469 C 79.597656 93.148438 79.609375 93.273438 79.570312 93.371094 Z M 80.128906 93.371094 C 80.085938 93.484375 80.042969 93.441406 80.042969 93.289062 C 80.03125 93.136719 80.074219 93.050781 80.113281 93.105469 C 80.15625 93.148438 80.171875 93.273438 80.128906 93.371094 Z M 80.410156 93.371094 C 80.367188 93.484375 80.324219 93.441406 80.324219 93.289062 C 80.3125 93.136719 80.351562 93.050781 80.394531 93.105469 C 80.4375 93.148438 80.449219 93.273438 80.410156 93.371094 Z M 84.464844 93.371094 C 84.425781 93.484375 84.382812 93.441406 84.382812 93.289062 C 84.367188 93.136719 84.410156 93.050781 84.453125 93.105469 C 84.492188 93.148438 84.507812 93.273438 84.464844 93.371094 Z M 80.6875 93.652344 C 80.644531 93.761719 80.605469 93.722656 80.605469 93.566406 C 80.589844 93.414062 80.632812 93.332031 80.675781 93.386719 C 80.714844 93.429688 80.730469 93.554688 80.6875 93.652344 Z M 82.226562 94.976562 C 82.183594 95.117188 82.15625 95.03125 82.15625 94.808594 C 82.15625 94.570312 82.183594 94.472656 82.226562 94.558594 C 82.253906 94.65625 82.253906 94.851562 82.226562 94.976562 Z M 78.351562 95.0625 C 78.351562 95.128906 78.296875 95.128906 78.210938 95.089844 C 78.140625 95.046875 78.070312 94.894531 78.070312 94.765625 C 78.070312 94.558594 78.101562 94.558594 78.210938 94.738281 C 78.28125 94.851562 78.351562 95.003906 78.351562 95.0625 Z M 78.632812 94.765625 C 78.632812 94.894531 78.6875 94.878906 78.773438 94.738281 C 78.882812 94.558594 78.910156 94.558594 78.910156 94.753906 C 78.910156 95.074219 78.757812 95.171875 78.535156 95.003906 C 78.324219 94.824219 78.296875 94.601562 78.492188 94.601562 C 78.574219 94.601562 78.632812 94.683594 78.632812 94.765625 Z M 79.359375 94.726562 C 79.472656 94.558594 79.5 94.558594 79.570312 94.726562 C 79.640625 94.878906 79.667969 94.878906 79.777344 94.726562 C 79.875 94.570312 79.890625 94.601562 79.863281 94.808594 C 79.835938 94.992188 79.707031 95.074219 79.472656 95.074219 C 79.234375 95.074219 79.105469 94.992188 79.09375 94.808594 C 79.066406 94.640625 79.09375 94.613281 79.136719 94.726562 C 79.207031 94.878906 79.246094 94.878906 79.359375 94.726562 Z M 80.339844 94.726562 C 80.449219 94.558594 80.476562 94.558594 80.546875 94.726562 C 80.617188 94.878906 80.644531 94.878906 80.757812 94.726562 C 80.855469 94.570312 80.871094 94.601562 80.84375 94.808594 C 80.8125 94.992188 80.6875 95.074219 80.449219 95.074219 C 80.210938 95.074219 80.085938 94.992188 80.074219 94.808594 C 80.042969 94.640625 80.074219 94.613281 80.113281 94.726562 C 80.183594 94.878906 80.226562 94.878906 80.339844 94.726562 Z M 81.851562 94.878906 C 81.851562 95.0625 81.75 95.160156 81.570312 95.160156 C 81.414062 95.160156 81.289062 95.089844 81.289062 95.003906 C 81.289062 94.921875 81.386719 94.894531 81.515625 94.933594 C 81.710938 95.003906 81.722656 94.992188 81.570312 94.808594 C 81.429688 94.640625 81.429688 94.601562 81.625 94.601562 C 81.75 94.601562 81.851562 94.710938 81.851562 94.878906 Z M 82.941406 94.921875 C 83.011719 95.257812 82.730469 95.214844 82.648438 94.863281 C 82.605469 94.683594 82.632812 94.601562 82.730469 94.640625 C 82.828125 94.667969 82.914062 94.796875 82.941406 94.921875 Z M 84.058594 94.949219 L 84.101562 95.226562 L 83.921875 94.949219 C 83.753906 94.683594 83.753906 94.683594 83.65625 95.019531 C 83.554688 95.355469 83.554688 95.355469 83.542969 95.046875 C 83.527344 94.683594 83.289062 94.628906 83.207031 94.976562 C 83.164062 95.160156 83.136719 95.144531 83.121094 94.90625 C 83.109375 94.628906 83.164062 94.585938 83.554688 94.628906 C 83.890625 94.65625 84.03125 94.753906 84.058594 94.949219 Z M 84.59375 94.726562 C 84.761719 94.601562 84.761719 94.640625 84.632812 95.003906 C 84.4375 95.5625 84.296875 95.550781 84.269531 94.976562 C 84.269531 94.738281 84.285156 94.613281 84.324219 94.710938 C 84.382812 94.851562 84.4375 94.851562 84.59375 94.726562 Z M 85.488281 94.738281 C 85.304688 94.863281 85.304688 94.894531 85.488281 95.019531 C 85.667969 95.128906 85.65625 95.160156 85.460938 95.160156 C 85.320312 95.160156 85.207031 95.074219 85.207031 94.976562 C 85.207031 94.738281 85.347656 94.601562 85.542969 94.601562 C 85.628906 94.601562 85.597656 94.667969 85.488281 94.738281 Z M 86.300781 94.921875 C 86.328125 95.089844 86.257812 95.160156 86.0625 95.160156 C 85.894531 95.160156 85.765625 95.074219 85.765625 94.976562 C 85.765625 94.542969 86.214844 94.503906 86.300781 94.921875 Z M 87.417969 94.949219 C 87.460938 95.226562 87.460938 95.226562 87.292969 94.949219 C 87.125 94.683594 87.125 94.683594 87.011719 94.949219 C 86.914062 95.1875 86.902344 95.199219 86.902344 94.976562 C 86.886719 94.851562 86.832031 94.738281 86.761719 94.738281 C 86.691406 94.738281 86.59375 94.851562 86.566406 94.976562 C 86.523438 95.160156 86.496094 95.144531 86.480469 94.90625 C 86.464844 94.628906 86.523438 94.585938 86.914062 94.628906 C 87.25 94.65625 87.390625 94.753906 87.417969 94.949219 Z M 87.417969 94.949219 "/>
<path style=" stroke:none;fill-rule:nonzero;fill:rgb(0%,0%,0%);fill-opacity:1;" d="M 4.058594 94.460938 C 4.058594 94.613281 4.128906 94.738281 4.199219 94.738281 C 4.28125 94.738281 4.335938 94.613281 4.335938 94.460938 C 4.335938 94.308594 4.28125 94.179688 4.199219 94.179688 C 4.128906 94.179688 4.058594 94.308594 4.058594 94.460938 Z M 4.058594 94.460938 "/>
<path style=" stroke:none;fill-rule:nonzero;fill:rgb(0%,0%,0%);fill-opacity:1;" d="M 6.171875 94.238281 C 6.015625 94.417969 6.015625 94.515625 6.128906 94.628906 C 6.339844 94.835938 6.464844 94.699219 6.40625 94.308594 C 6.367188 94.015625 6.351562 94.015625 6.171875 94.238281 Z M 6.171875 94.238281 "/>
<path style=" stroke:none;fill-rule:nonzero;fill:rgb(0%,0%,0%);fill-opacity:1;" d="M 85.90625 94.878906 C 85.90625 94.949219 85.976562 95.019531 86.046875 95.019531 C 86.132812 95.019531 86.1875 94.949219 86.1875 94.878906 C 86.1875 94.796875 86.132812 94.738281 86.046875 94.738281 C 85.976562 94.738281 85.90625 94.796875 85.90625 94.878906 Z M 85.90625 94.878906 "/>
</g>
</svg>
